<svg id="icon-bicycle" preserveAspectRatio="xMidYMin meet" viewBox="0 0 512 512" xmlns="http://www.w3.org/2000/svg">
<path d="m99.334 402.521c-86.476 0-133.445-105.952-70.071-169.328 62.779-62.78 169.329-17.322 169.329 70.07 0 54.731-44.527 99.258-99.258 99.258zm0-166.516c-37.086 0-67.258 30.172-67.258 67.258s30.172 67.258 67.258 67.258 67.258-30.172 67.258-67.258-30.172-67.258-67.258-67.258z" fill="#42434d" />
<path d="m116.452 205.497c8.697 1.532 7.667 14.386-1.164 14.465-51.509.461-99.46 42.161-99.071 100.111.06 8.958-12.816 10.16-14.464 1.355-12.691-67.837 46.873-127.875 114.699-115.931z" fill="#4d4e59"/>
<path d="m396.575 402.538c-54.864 0-99.5-44.636-99.5-99.5s44.636-99.5 99.5-99.5 99.5 44.636 99.5 99.5-44.635 99.5-99.5 99.5zm0-167c-37.22 0-67.5 30.28-67.5 67.5s30.28 67.5 67.5 67.5 67.5-30.28 67.5-67.5-30.28-67.5-67.5-67.5z" fill="#42434d"/>
<path d="m413.462 205.497c8.698 1.532 7.667 14.386-1.164 14.465-51.509.461-99.46 42.161-99.071 100.111.06 8.958-12.816 10.16-14.464 1.355-12.691-67.837 46.873-127.875 114.699-115.931z" fill="#4d4e59"/>
<path d="m412.01 297.874-63.871-193.354c-2.165-6.555-8.29-10.981-15.192-10.981h-36.871c-8.837 0-16 7.163-16 16s7.163 16 16 16h25.306l8.589 26h-159.514l-16.724-27.784c-4.558-7.57-14.39-10.017-21.959-5.457-7.571 4.557-10.014 14.389-5.458 21.959l16.848 27.991-58.713 128.646c-4.833 10.591 2.927 22.644 14.556 22.644h144.125c4.924 0 9.573-2.268 12.606-6.146l89.762-114.839 36.125 109.358c2.781 8.42 11.855 12.938 20.211 10.174 8.391-2.772 12.945-11.821 10.174-20.211zm-248.84-96.39 51.797 86.054h-91.071zm81.756 73.776-55.208-91.722h126.902z" fill="#2c2c33"/>
<path d="m172.075 147.538h-50c-8.836 0-16-7.163-16-16s7.164-16 16-16h50c8.836 0 16 7.163 16 16s-7.163 16-16 16z" fill="#42434d"/>
<path d="m172.445 129.451c-7.557.002-19.008.007-36.45.007-6.838 0-12.521 4.238-14.86 10.053-1.986 4.94-8.73 5.842-11.907 1.57-7.933-10.667-.077-25.542 13.333-25.542h49.515c10.191-.001 9.273 13.91.369 13.912z" fill="#4d4e59"/>
</svg>